<?xml version="1.0" encoding="UTF-8"?>
<svg id="_Слой_2" data-name="Слой 2" xmlns="http://www.w3.org/2000/svg" xmlns:xlink="http://www.w3.org/1999/xlink" viewBox="0 0 500 345">
  <defs>
    <style>
      .cls-1 {
        fill: #f16529;
      }

      .cls-1, .cls-2, .cls-3, .cls-4, .cls-5, .cls-6, .cls-7, .cls-8 {
        stroke-width: 0px;
      }

      .cls-2 {
        fill: url(#_Безымянный_градиент_168);
      }

      .cls-3 {
        fill: #efbe24;
      }

      .cls-4 {
        fill: #e44d26;
      }

      .cls-5 {
        fill: #2965f1;
      }

      .cls-6 {
        fill: #fff;
      }

      .cls-9 {
        font-family: FranklinGothic-Heavy, 'Franklin Gothic Heavy';
        font-size: 181.58px;
        font-weight: 800;
        opacity: .5;
      }

      .cls-7 {
        fill: #264de4;
      }

      .cls-8 {
        fill: #e4a125;
      }

      .cls-10 {
        opacity: .3;
      }
    </style>
    <linearGradient id="_Безымянный_градиент_168" data-name="Безымянный градиент 168" x1="0" y1="150" x2="500" y2="150" gradientUnits="userSpaceOnUse">
      <stop offset="0" stop-color="#3f7cff"/>
      <stop offset="1" stop-color="#15c7ff"/>
    </linearGradient>
  </defs>
  <g id="_Слой_1-2" data-name="Слой 1">
    <rect class="cls-2" width="500" height="300"/>
    <g class="cls-10">
      <polygon class="cls-4" points="157 15.9 97.62 15.9 97.06 15.9 37.69 15.9 48.29 134.66 97.06 150.66 97.06 150.84 97.34 150.75 97.62 150.84 97.62 150.66 146.4 134.66 157 15.9"/>
      <polygon class="cls-1" points="149.58 24.21 97.59 24.21 97.1 24.21 45.11 24.21 54.39 128.19 97.1 142.2 97.1 142.36 97.34 142.28 97.59 142.36 97.59 142.2 140.29 128.19 149.58 24.21"/>
      <path class="cls-6" d="M134.73,45.59v-12.72H60.51l2.56,43.47h57.63l-1.87,31.81c-4.59,1.41-9.19,2.83-13.78,4.24h-11.66c-4.59-1.41-9.19-2.83-13.78-4.24v-14.84h-15.9v24.39c9.9,2.81,19.79,5.61,29.69,8.42v.06h11.66v-.06c9.9-2.81,19.79-5.61,29.69-8.42v-53.7h-59.22l-1.35-18.4h60.57Z"/>
    </g>
    <text class="cls-9" transform="translate(73.47 289.33)"><tspan x="0" y="0">CSS</tspan></text>
    <g>
      <polygon class="cls-7" points="313.26 16 250.5 16 249.91 16 187.15 16 198.35 141.52 249.91 158.44 249.91 158.63 250.21 158.54 250.5 158.63 250.5 158.44 302.06 141.52 313.26 16"/>
      <polygon class="cls-5" points="305.42 24.78 250.47 24.78 249.95 24.78 194.99 24.78 204.81 134.69 249.95 149.5 249.95 149.67 250.21 149.58 250.47 149.67 250.47 149.5 295.61 134.69 305.42 24.78"/>
      <path class="cls-6" d="M290.85,35.05h-76.21v13.45h61.78l-1.39,19.05h-60.38v13.45h59.14l-1.98,33.62c-4.86,1.49-9.71,2.99-14.57,4.48h-12.33c-4.86-1.49-9.71-2.99-14.57-4.48v-15.69h-16.81v25.78c10.46,2.97,20.92,5.93,31.38,8.9v.07h12.33v-.07c10.46-2.97,20.92-5.93,31.38-8.9v-51.55l2.24-38.11Z"/>
    </g>
    <g class="cls-10">
      <g>
        <polygon class="cls-8" points="452.15 20.78 396.15 20.78 395.62 20.78 339.62 20.78 349.62 132.78 395.62 147.87 395.62 148.04 395.88 147.96 396.15 148.04 396.15 147.87 442.15 132.78 452.15 20.78"/>
        <polygon class="cls-3" points="445.15 28.61 396.11 28.61 395.65 28.61 346.62 28.61 355.37 126.68 395.65 139.89 395.65 140.04 395.88 139.97 396.11 140.04 396.11 139.89 436.39 126.68 445.15 28.61"/>
      </g>
      <path class="cls-6" d="M402.31,53.78h-6.53l-1.63,24.69h29.8l-.96,18.07c-2.36.8-4.72,1.61-7.07,2.41h-5.99c-2.36-.8-4.72-1.61-7.07-2.41v-8.43h-8.16v13.85c5.08,1.59,10.16,3.19,15.24,4.78v.04h5.99v-.04c5.08-1.59,10.16-3.19,15.24-4.78v-30.5h-29.78l.56-10.45h21.06v6.02h8.16v-13.25h-28.84Z"/>
      <path class="cls-6" d="M382.7,54.24l-1.04,42.39c-1.88.8-3.75,1.59-5.63,2.39h-4.76c-1.88-.8-3.75-1.59-5.63-2.39v-8.36h-6.49v13.73c4.04,1.58,8.08,3.16,12.12,4.74v.04h4.76v-.04c4.04-1.58,8.08-3.16,12.12-4.74v-47.76h-5.45Z"/>
    </g>
  </g>
</svg>