<?xml version="1.0" encoding="UTF-8"?>
<svg id="_Слой_2" data-name="Слой 2" xmlns="http://www.w3.org/2000/svg" xmlns:xlink="http://www.w3.org/1999/xlink" viewBox="0 0 500 345">
  <defs>
    <style>
      .cls-1 {
        fill: #f16529;
      }

      .cls-1, .cls-2, .cls-3, .cls-4, .cls-5, .cls-6, .cls-7, .cls-8 {
        stroke-width: 0px;
      }

      .cls-2 {
        fill: #efbe24;
      }

      .cls-3 {
        fill: url(#_Безымянный_градиент_165);
      }

      .cls-4 {
        fill: #e44d26;
      }

      .cls-5 {
        fill: #2965f1;
      }

      .cls-6 {
        fill: #fff;
      }

      .cls-9 {
        font-family: FranklinGothic-Heavy, 'Franklin Gothic Heavy';
        font-size: 181.58px;
        font-weight: 800;
        opacity: .5;
      }

      .cls-7 {
        fill: #264de4;
      }

      .cls-8 {
        fill: #e4a125;
      }

      .cls-10 {
        opacity: .3;
      }
    </style>
    <linearGradient id="_Безымянный_градиент_165" data-name="Безымянный градиент 165" x1="0" y1="150" x2="500" y2="150" gradientUnits="userSpaceOnUse">
      <stop offset="0" stop-color="#ff7c00"/>
      <stop offset=".26" stop-color="#ff7905"/>
      <stop offset="1" stop-color="#ff7015"/>
    </linearGradient>
  </defs>
  <g id="_Слой_1-2" data-name="Слой 1">
    <rect class="cls-3" width="500" height="300"/>
    <g>
      <polygon class="cls-4" points="314 15.9 250.64 15.9 250.04 15.9 186.69 15.9 198 142.62 250.04 159.69 250.04 159.89 250.34 159.79 250.64 159.89 250.64 159.69 302.69 142.62 314 15.9"/>
      <polygon class="cls-1" points="306.08 24.76 250.6 24.76 250.08 24.76 194.61 24.76 204.51 135.72 250.08 150.66 250.08 150.84 250.34 150.75 250.6 150.84 250.6 150.66 296.17 135.72 306.08 24.76"/>
      <path class="cls-6" d="M290.24,47.58v-13.58h-79.2l2.73,46.39h61.49l-2,33.94c-4.9,1.51-9.81,3.02-14.71,4.53h-12.45c-4.9-1.51-9.81-3.02-14.71-4.53v-15.84h-16.97v26.02c10.56,2.99,21.12,5.99,31.68,8.98v.07h12.45v-.07c10.56-2.99,21.12-5.99,31.68-8.98v-57.3h-63.19l-1.44-19.63h64.63Z"/>
    </g>
    <text class="cls-9" transform="translate(24.47 289.33)"><tspan x="0" y="0">HTML</tspan></text>
    <g class="cls-10">
      <polygon class="cls-7" points="157.68 20.37 101.68 20.37 101.15 20.37 45.15 20.37 55.15 132.37 101.15 147.46 101.15 147.63 101.41 147.55 101.68 147.63 101.68 147.46 147.68 132.37 157.68 20.37"/>
      <polygon class="cls-5" points="150.68 28.2 101.64 28.2 101.18 28.2 52.15 28.2 60.9 126.27 101.18 139.48 101.18 139.63 101.41 139.56 101.64 139.63 101.64 139.48 141.92 126.27 150.68 28.2"/>
      <path class="cls-6" d="M137.68,37.37h-68v12h55.12l-1.24,17h-53.88v12h52.76l-1.76,30c-4.33,1.33-8.67,2.67-13,4h-11c-4.33-1.33-8.67-2.67-13-4v-14h-15v23c9.33,2.65,18.67,5.29,28,7.94v.06h11v-.06c9.33-2.65,18.67-5.29,28-7.94v-46l2-34Z"/>
    </g>
    <g class="cls-10">
      <g>
        <polygon class="cls-8" points="452.15 20.78 396.15 20.78 395.62 20.78 339.62 20.78 349.62 132.78 395.62 147.87 395.62 148.04 395.88 147.96 396.15 148.04 396.15 147.87 442.15 132.78 452.15 20.78"/>
        <polygon class="cls-2" points="445.15 28.61 396.11 28.61 395.65 28.61 346.62 28.61 355.37 126.68 395.65 139.89 395.65 140.04 395.88 139.97 396.11 140.04 396.11 139.89 436.39 126.68 445.15 28.61"/>
      </g>
      <path class="cls-6" d="M402.31,53.78h-6.53l-1.63,24.69h29.8l-.96,18.07c-2.36.8-4.72,1.61-7.07,2.41h-5.99c-2.36-.8-4.72-1.61-7.07-2.41v-8.43h-8.16v13.85c5.08,1.59,10.16,3.19,15.24,4.78v.04h5.99v-.04c5.08-1.59,10.16-3.19,15.24-4.78v-30.5h-29.78l.56-10.45h21.06v6.02h8.16v-13.25h-28.84Z"/>
      <path class="cls-6" d="M382.7,54.24l-1.04,42.39c-1.88.8-3.75,1.59-5.63,2.39h-4.76c-1.88-.8-3.75-1.59-5.63-2.39v-8.36h-6.49v13.73c4.04,1.58,8.08,3.16,12.12,4.74v.04h4.76v-.04c4.04-1.58,8.08-3.16,12.12-4.74v-47.76h-5.45Z"/>
    </g>
  </g>
</svg>