<?xml version="1.0" encoding="UTF-8"?>
<svg id="_Слой_2" data-name="Слой 2" xmlns="http://www.w3.org/2000/svg" xmlns:xlink="http://www.w3.org/1999/xlink" viewBox="0 0 500 345">
  <defs>
    <style>
      .cls-1 {
        fill: #f16529;
      }

      .cls-1, .cls-2, .cls-3, .cls-4, .cls-5, .cls-6, .cls-7, .cls-8 {
        stroke-width: 0px;
      }

      .cls-2 {
        fill: #efbe24;
      }

      .cls-3 {
        fill: #e44d26;
      }

      .cls-4 {
        fill: #2965f1;
      }

      .cls-5 {
        fill: #fff;
      }

      .cls-9 {
        font-family: FranklinGothic-Heavy, 'Franklin Gothic Heavy';
        font-size: 181.58px;
        font-weight: 800;
        opacity: .5;
      }

      .cls-6 {
        fill: #264de4;
      }

      .cls-7 {
        fill: url(#_Безымянный_градиент_173);
      }

      .cls-8 {
        fill: #e4a125;
      }

      .cls-10 {
        opacity: .3;
      }
    </style>
    <linearGradient id="_Безымянный_градиент_173" data-name="Безымянный градиент 173" x1="0" y1="150" x2="500" y2="150" gradientUnits="userSpaceOnUse">
      <stop offset="0" stop-color="#efbe24"/>
      <stop offset="1" stop-color="#e4a125"/>
    </linearGradient>
  </defs>
  <g id="_Слой_1-2" data-name="Слой 1">
    <rect class="cls-7" width="500" height="300"/>
    <g class="cls-10">
      <polygon class="cls-3" points="157 15.9 97.62 15.9 97.06 15.9 37.69 15.9 48.29 134.66 97.06 150.66 97.06 150.84 97.34 150.75 97.62 150.84 97.62 150.66 146.4 134.66 157 15.9"/>
      <polygon class="cls-1" points="149.58 24.21 97.59 24.21 97.1 24.21 45.11 24.21 54.39 128.19 97.1 142.2 97.1 142.36 97.34 142.28 97.59 142.36 97.59 142.2 140.29 128.19 149.58 24.21"/>
      <path class="cls-5" d="M134.73,45.59v-12.72H60.51l2.56,43.47h57.63l-1.87,31.81c-4.59,1.41-9.19,2.83-13.78,4.24h-11.66c-4.59-1.41-9.19-2.83-13.78-4.24v-14.84h-15.9v24.39c9.9,2.81,19.79,5.61,29.69,8.42v.06h11.66v-.06c9.9-2.81,19.79-5.61,29.69-8.42v-53.7h-59.22l-1.35-18.4h60.57Z"/>
    </g>
    <g class="cls-10">
      <polygon class="cls-6" points="469 16.09 409.36 16.09 408.79 16.09 349.15 16.09 359.8 135.37 408.79 151.45 408.79 151.63 409.07 151.54 409.36 151.63 409.36 151.45 458.35 135.37 469 16.09"/>
      <polygon class="cls-4" points="461.54 24.43 409.32 24.43 408.83 24.43 356.6 24.43 365.93 128.88 408.83 142.95 408.83 143.11 409.07 143.03 409.32 143.11 409.32 142.95 452.22 128.88 461.54 24.43"/>
      <path class="cls-5" d="M447.7,34.19h-72.43v12.78h58.71l-1.32,18.11h-57.38v12.78h56.2l-1.88,31.95c-4.62,1.42-9.23,2.84-13.85,4.26h-11.72c-4.62-1.42-9.23-2.84-13.85-4.26v-14.91h-15.98v24.5c9.94,2.82,19.88,5.64,29.82,8.46v.06h11.72v-.06c9.94-2.82,19.88-5.64,29.82-8.46v-48.99l2.13-36.21Z"/>
    </g>
    <g>
      <g>
        <polygon class="cls-8" points="321.87 15 258.04 15 257.44 15 193.62 15 205.01 142.65 257.44 159.85 257.44 160.04 257.74 159.95 258.04 160.04 258.04 159.85 310.47 142.65 321.87 15"/>
        <polygon class="cls-2" points="313.89 23.93 258.01 23.93 257.48 23.93 201.6 23.93 211.57 135.69 257.48 150.75 257.48 150.93 257.74 150.84 258.01 150.93 258.01 150.75 303.91 135.69 313.89 23.93"/>
      </g>
      <path class="cls-5" d="M265.07,52.61h-7.44l-1.86,28.14h33.96l-1.09,20.59c-2.69.92-5.37,1.83-8.06,2.75h-6.82c-2.69-.92-5.37-1.83-8.06-2.75v-9.61h-9.3v15.79c5.79,1.82,11.58,3.63,17.36,5.45v.04h6.82v-.04c5.79-1.82,11.58-3.63,17.36-5.45v-34.76h-33.94l.63-11.91h24v6.86h9.3v-15.1h-32.87Z"/>
      <path class="cls-5" d="M242.72,53.14l-1.19,48.31c-2.14.91-4.28,1.81-6.41,2.72h-5.43c-2.14-.91-4.28-1.81-6.41-2.72v-9.53h-7.4v15.65c4.6,1.8,9.21,3.6,13.81,5.4v.04h5.43v-.04c4.6-1.8,9.21-3.6,13.81-5.4v-54.43h-6.21Z"/>
    </g>
    <text class="cls-9" transform="translate(157.47 289.33)"><tspan x="0" y="0">JS</tspan></text>
  </g>
</svg>