<?xml version="1.0" encoding="UTF-8"?>
<svg id="_Слой_2" data-name="Слой 2" xmlns="http://www.w3.org/2000/svg" viewBox="0 0 205.87 201.43">
  <defs>
    <style>
      .cls-1 {
        fill: #6cd4a3;
      }

      .cls-1, .cls-2 {
        stroke-width: 0px;
      }

      .cls-2 {
        fill: #fff;
      }
    </style>
  </defs>
  <g id="_Слой_1-2" data-name="Слой 1">
    <g>
      <rect class="cls-2" x="17.05" y="77.21" width="12.33" height="59.18" rx="5" ry="5" transform="translate(82.32 14.87) rotate(45)"/>
      <rect class="cls-2" x="39.67" y="99.84" width="12.33" height="59.18" rx="5" ry="5" transform="translate(104.95 5.5) rotate(45)"/>
      <rect class="cls-2" x="64.42" y="124.59" width="12.33" height="59.18" rx="5" ry="5" transform="translate(129.69 -4.76) rotate(45)"/>
      <rect class="cls-2" x="88.46" y="148.63" width="12.33" height="59.18" rx="5" ry="5" transform="translate(153.74 -14.71) rotate(45)"/>
      <path class="cls-2" d="M167.82,113.26c.53-1.32,2.16-5.33,4.85-10.39,1.28-2.4,2.51-4.5,3.66-6.36,19.33-21.43,27.37-47.39,21.73-66.19.21-2.61.63-5.51,1.38-8.73,2.87-12.33,8.17-19.12,5.85-21.02-1.9-2.31-8.69,2.98-21.02,5.85-3.24.75-6.15,1.17-8.77,1.38-16.11-4.8-37.45.42-56.69,14.15-3.46,1.47-8.23,5.52-16.86,10.12-4.98,2.65-8.9,4.22-10.45,4.88-41.73,17.68-62.58,26.64-61.92,32.57.41,3.64,6.59,1.58,18.38,9.9,10.45,7.37,15.24,15.78,27.6,18.47,1.21.26,2.21.41,2.82.49,1.19,7.62,4.32,14.36,9.54,19.58s11.37,8.05,18.57,9.35c.08.44.2,1.1.38,1.88,2.39,10.56,8.62,17.24,11.81,20.94,13.71,15.9,11.94,23.9,16.97,24.04,7.34.21,15.61-20.16,32.16-60.92Z"/>
      <path class="cls-1" d="M170.66,102.41c-23.91,20.51-67.46,35.33-85.21,17.32-17.72-17.97-2.2-61.01,18.03-84.5C119.09,17.12,147.22.28,167.48,6.59c5.51,1.72,12.77,7.28,18.74,13.08,5.29,5.14,10.73,12.02,13.08,17.32,8.5,19.12-9.49,48.99-28.64,65.41Z"/>
      <circle class="cls-2" cx="159.7" cy="44.78" r="23.5"/>
      <circle class="cls-1" cx="159.7" cy="44.78" r="15.5"/>
    </g>
  </g>
</svg>