<?xml version="1.0" encoding="UTF-8"?>
<svg id="_Слой_2" data-name="Слой 2" xmlns="http://www.w3.org/2000/svg" xmlns:xlink="http://www.w3.org/1999/xlink" viewBox="0 0 200 200">
  <defs>
    <style>
      .cls-1 {
        fill: url(#_Безымянный_градиент_136);
      }

      .cls-1, .cls-2 {
        stroke-width: 0px;
      }

      .cls-2 {
        fill: #fff;
      }
    </style>
    <linearGradient id="_Безымянный_градиент_136" data-name="Безымянный градиент 136" x1="0" y1="100" x2="200" y2="100" gradientUnits="userSpaceOnUse">
      <stop offset="0" stop-color="#32a4de"/>
      <stop offset=".23" stop-color="#44b2e5"/>
      <stop offset="1" stop-color="#7fe0ff"/>
    </linearGradient>
  </defs>
  <g id="_Слой_1-2" data-name="Слой 1">
    <rect class="cls-1" x="0" y="0" width="200" height="200" rx="100" ry="100"/>
    <path class="cls-2" d="M160.15,39.67c-2.75-3.37-15.1,2.82-25.05,7.37-17.96,8.21-31.34,12.88-52.06,19.65-18.33,5.98-35.92,14.01-54.03,20.63-2.11.77-8.82,3.24-8.84,6.39-.03,3.45,8.46,6.35,17.19,9.33,10.98,3.75,13.48,3.02,16.7,6.39,1.72,1.8,2.97,6.3,5.4,15.23,2.07,7.6,2.94,11.79,5.4,18.17,3.5,9.07,5.24,9.67,5.89,9.82,2.46.58,4.34-1.68,14.24-9.82,7.26-5.96,8.06-6.23,8.84-6.39,4.08-.8,8.28,1.35,20.63,12.28,13.49,11.94,16.38,16.33,19.53,15.29,2.8-.93,3.03-5.23,6-20,1.32-6.59,3.04-13.1,4.33-19.69,6-30.63,9-45.94,9.43-47.79,1.9-8.13,2.82-16.48,4.91-24.56,1.89-7.28,3.01-10.4,1.47-12.28ZM95.31,99.6c-4.04,3.31-7.76,7-11.79,10.31-6.2,5.1-8.08,6.16-9.33,9.33-.77,1.95-1.41,5.03-2.46,11.3-1.07,6.44-1.17,8.75-1.96,8.84-1.28.15-2.97-5.6-3.93-8.84-2.02-6.85-1.22-7.12-2.95-13.26-1-3.55-1.87-4.61-1.47-6.88.58-3.31,3.21-5.43,4.42-6.39,11.09-8.71,21.12-13.75,21.12-13.75,3.92-1.97,10.14-5.57,22.59-12.77,14.67-8.48,18.63-11.47,19.16-10.81,1.31,1.64-20.88,22.65-33.4,32.91Z"/>
  </g>
</svg>