<?xml version="1.0" encoding="UTF-8"?>
<svg id="_Слой_2" data-name="Слой 2" xmlns="http://www.w3.org/2000/svg" viewBox="0 0 208 282">
  <defs>
    <style>
      .cls-1 {
        fill: #fff;
      }

      .cls-1, .cls-2 {
        stroke-width: 0px;
      }

      .cls-2 {
        fill: #babfbc;
      }
    </style>
  </defs>
  <g id="_Слой_1-2" data-name="Слой 1">
    <path class="cls-1" d="M66,67.5c0-21.26,17.24-38.5,38.5-38.5,13.3,0,25.01,6.75,31.93,17h31.9C159.18,19.25,133.85,0,104,0,66.44,0,36,30.44,36,68s30.44,68,68,68c7.33,0,14.38-1.17,21-3.32v-32.6c-5.94,3.74-12.96,5.92-20.5,5.92-21.26,0-38.5-17.24-38.5-38.5Z"/>
    <rect class="cls-2" y="90" width="208" height="192"/>
    <path class="cls-1" d="M125,175.75c0-11.32-9.18-20.5-20.5-20.5s-20.5,9.18-20.5,20.5c0,6.34,2.88,12.01,7.41,15.78v12.38c0,7.23,5.86,13.09,13.09,13.09s13.09-5.86,13.09-13.09v-12.38c4.53-3.76,7.41-9.43,7.41-15.78Z"/>
  </g>
</svg>