<?xml version="1.0" encoding="UTF-8"?>
<svg id="_Слой_2" data-name="Слой 2" xmlns="http://www.w3.org/2000/svg" xmlns:xlink="http://www.w3.org/1999/xlink" viewBox="0 0 180 180">
  <defs>
    <style>
      .cls-1 {
        fill: #fff;
      }

      .cls-1, .cls-2 {
        stroke-width: 0px;
      }

      .cls-2 {
        fill: url(#_Безымянный_градиент_17);
      }
    </style>
    <linearGradient id="_Безымянный_градиент_17" data-name="Безымянный градиент 17" x1="148.79" y1="-11.83" x2="31.21" y2="191.83" gradientUnits="userSpaceOnUse">
      <stop offset="0" stop-color="#4b7aff"/>
      <stop offset=".08" stop-color="#4977f9"/>
      <stop offset="1" stop-color="#395bbf"/>
    </linearGradient>
  </defs>
  <g id="_Слой_1-2" data-name="Слой 1">
    <rect class="cls-2" width="180" height="180" rx="14.65" ry="14.65"/>
    <path class="cls-1" d="M111,115c-1.89.22-3.14,1.87-4,3-3.58,4.71-1.07,9.3-3,13-3.24,6.2-16.54,5.19-19,5-2.86-.22-16.25-1.52-33-16-8.54-7.38-15.48-18.69-29-41-11.41-18.83-14.88-26.61-12-30,1.17-1.37,5.46-1.6,14-2,8.91-.42,13.37-.62,15,0,5.77,2.21,6.63,7.25,16,24,8.52,15.24,10.72,16.26,12,16,2.28-.47,3-5.28,4-12,1.18-7.92,2.44-16.4-2-20-2.3-1.87-5.11-1.59-6-4-.62-1.69.05-3.73,1-5,2.35-3.13,7.21-2.59,18-2,16.3.89,17.29.32,19,2,2.79,2.75,2.57,9.53,2,23-.46,10.82-1.3,15.88,1,17,2.02.98,5.22-1.69,8-4,6.01-5.01,9.1-10.64,10.25-12.84,6.75-12.97,3.72-17.67,8.75-21.16,2.8-1.95,3.94-.64,18-1,12.63-.32,16.04-1.49,18,1,2.47,3.13.12,8.84-2,14-1.55,3.78-3.61,7.43-11,17-8.92,11.56-11.33,13.26-11,17,.19,2.18,1.19,3.67,10,12,11.84,11.2,15.77,13.92,16,19,.01.22.16,4.92-3,8-1.84,1.8-4.26,2.51-17,2-9.41-.37-14.17-.59-17-2-3.59-1.79-6.06-4.53-11-10-5.7-6.32-7.79-10.38-11-10Z"/>
  </g>
</svg>